<?xml version="1.0" encoding="UTF-8" standalone="no"?>
<!-- Created with Inkscape (http://www.inkscape.org/) -->

<svg
   xmlns:dc="http://purl.org/dc/elements/1.1/"
   xmlns:cc="http://creativecommons.org/ns#"
   xmlns:rdf="http://www.w3.org/1999/02/22-rdf-syntax-ns#"
   xmlns:svg="http://www.w3.org/2000/svg"
   xmlns="http://www.w3.org/2000/svg"
   xmlns:sodipodi="http://sodipodi.sourceforge.net/DTD/sodipodi-0.dtd"
   xmlns:inkscape="http://www.inkscape.org/namespaces/inkscape"
   width="608.90393"
   height="608.90393"
   id="svg2"
   version="1.1"
   inkscape:version="0.48.4 r9939"
   sodipodi:docname="explore-logo.svg"
   inkscape:export-filename="/home/gumm/Workspace/explore/app/public/img/explogo.png"
   inkscape:export-xdpi="7.3899999"
   inkscape:export-ydpi="7.3899999">
  <defs
     id="defs4">
    <linearGradient
       id="linearGradient3820">
      <stop
         style="stop-color:#19aeff;stop-opacity:1;"
         offset="0"
         id="stop3822" />
      <stop
         style="stop-color:#19aeff;stop-opacity:1;"
         offset="1"
         id="stop3824" />
    </linearGradient>
  </defs>
  <sodipodi:namedview
     id="base"
     pagecolor="#ffffff"
     bordercolor="#666666"
     borderopacity="1.0"
     inkscape:pageopacity="0.0"
     inkscape:pageshadow="2"
     inkscape:zoom="0.29174885"
     inkscape:cx="2017.1674"
     inkscape:cy="-48.947414"
     inkscape:document-units="px"
     inkscape:current-layer="layer1"
     showgrid="false"
     showguides="true"
     inkscape:guide-bbox="true"
     inkscape:object-nodes="true"
     inkscape:window-width="1920"
     inkscape:window-height="1056"
     inkscape:window-x="0"
     inkscape:window-y="24"
     inkscape:window-maximized="1"
     inkscape:snap-global="true"
     fit-margin-top="0"
     fit-margin-left="0"
     fit-margin-right="0"
     fit-margin-bottom="0">
    <sodipodi:guide
       orientation="-2.4492936e-16,1"
       position="52.0464,803.3829"
       id="guide3851" />
    <sodipodi:guide
       orientation="0.76604444,0.64278761"
       position="935.88484,244.0921"
       id="guide3853" />
  </sodipodi:namedview>
  <metadata
     id="metadata7">
    <rdf:RDF>
      <cc:Work
         rdf:about="">
        <dc:format>image/svg+xml</dc:format>
        <dc:type
           rdf:resource="http://purl.org/dc/dcmitype/StillImage" />
        <dc:title></dc:title>
      </cc:Work>
    </rdf:RDF>
  </metadata>
  <g
     inkscape:label="Layer 1"
     inkscape:groupmode="layer"
     id="layer1"
     transform="translate(-48.791714,-289.4697)">
    <path
       style="fill:#333333;fill-opacity:1;stroke:none"
       d="M 304.4375 6.6875 C 299.29826 6.6875 294.2003 6.8052323 289.125 7.0625 C 284.0497 7.3197677 279.00513 7.7104511 274 8.21875 C 268.99487 8.7270489 264.02247 9.3719065 259.09375 10.125 C 254.16503 10.878093 249.28358 11.727098 244.4375 12.71875 C 239.59142 13.710402 234.78845 14.838527 230.03125 16.0625 C 225.27405 17.286473 220.56833 18.612442 215.90625 20.0625 C 211.24417 21.512558 206.62323 23.080094 202.0625 24.75 C 197.50177 26.419906 192.98439 28.210232 188.53125 30.09375 C 184.07811 31.977268 179.68306 33.940356 175.34375 36.03125 C 171.00444 38.122144 166.71925 40.332968 162.5 42.625 C 158.28075 44.917032 154.1242 47.294315 150.03125 49.78125 C 145.9383 52.268185 141.92916 54.85565 137.96875 57.53125 C 134.00834 60.20685 130.10289 62.985721 126.28125 65.84375 C 122.45961 68.701779 118.70788 71.653278 115.03125 74.6875 C 111.35462 77.721722 107.77538 80.827072 104.25 84.03125 C 100.72462 87.235428 97.274147 90.538353 93.90625 93.90625 C 90.538353 97.274147 87.235428 100.72462 84.03125 104.25 C 80.827072 107.77538 77.721722 111.35462 74.6875 115.03125 C 71.653278 118.70788 68.701779 122.45961 65.84375 126.28125 C 62.985721 130.10289 60.20685 134.00834 57.53125 137.96875 C 54.85565 141.92916 52.268185 145.9383 49.78125 150.03125 C 47.294315 154.1242 44.917032 158.28075 42.625 162.5 C 40.332968 166.71925 38.122144 171.00444 36.03125 175.34375 C 33.940356 179.68306 31.977268 184.07811 30.09375 188.53125 C 28.210232 192.98439 26.419906 197.50177 24.75 202.0625 C 23.080094 206.62323 21.512558 211.24417 20.0625 215.90625 C 18.612442 220.56833 17.286473 225.27405 16.0625 230.03125 C 14.838527 234.78845 13.710402 239.59142 12.71875 244.4375 C 11.727098 249.28358 10.878093 254.16503 10.125 259.09375 C 9.3719065 264.02247 8.7270489 268.99487 8.21875 274 C 7.7104511 279.00513 7.3197677 284.0497 7.0625 289.125 C 6.8052323 294.2003 6.6875 299.29826 6.6875 304.4375 C 6.6875 309.57674 6.8052323 314.70595 7.0625 319.78125 C 7.3197677 324.85655 7.7104511 329.90112 8.21875 334.90625 C 8.7270489 339.91138 9.3719065 344.88378 10.125 349.8125 C 10.878093 354.74122 11.727098 359.62267 12.71875 364.46875 C 13.710402 369.31483 14.838527 374.1178 16.0625 378.875 C 17.286473 383.6322 18.612442 388.33792 20.0625 393 C 21.512558 397.66208 23.080094 402.28302 24.75 406.84375 C 26.419906 411.40448 28.210232 415.89061 30.09375 420.34375 C 31.977268 424.79689 33.940356 429.22319 36.03125 433.5625 C 38.122144 437.90181 40.332968 442.15575 42.625 446.375 C 44.917032 450.59425 47.294315 454.7508 49.78125 458.84375 C 52.268185 462.9367 54.85565 466.97709 57.53125 470.9375 C 60.20685 474.89791 62.985721 478.80336 65.84375 482.625 C 68.701779 486.44664 71.653278 490.19837 74.6875 493.875 C 77.721722 497.55163 80.827072 501.13087 84.03125 504.65625 C 87.235428 508.18163 90.538353 511.6321 93.90625 515 C 97.274147 518.3679 100.72462 521.67082 104.25 524.875 C 107.77538 528.07918 111.35462 531.18453 115.03125 534.21875 C 118.70788 537.25297 122.45961 540.20447 126.28125 543.0625 C 130.10289 545.92053 134.00834 548.6994 137.96875 551.375 C 141.92916 554.0506 145.9383 556.63807 150.03125 559.125 C 154.1242 561.61193 158.28075 563.98922 162.5 566.28125 C 166.71925 568.57328 171.00444 570.78411 175.34375 572.875 C 179.68306 574.96589 184.07811 576.92898 188.53125 578.8125 C 192.98439 580.69602 197.50177 582.48634 202.0625 584.15625 C 206.62323 585.82616 211.24417 587.39369 215.90625 588.84375 C 220.56833 590.29381 225.27405 591.61978 230.03125 592.84375 C 234.78845 594.06772 239.59142 595.19585 244.4375 596.1875 C 249.28358 597.17915 254.16503 598.02816 259.09375 598.78125 C 264.02247 599.53434 268.99487 600.1792 274 600.6875 C 279.00513 601.1958 284.0497 601.58648 289.125 601.84375 C 294.2003 602.10102 299.29826 602.21875 304.4375 602.21875 C 309.57674 602.21875 314.70595 602.10102 319.78125 601.84375 C 324.85655 601.58648 329.90112 601.1958 334.90625 600.6875 C 339.91138 600.1792 344.88378 599.53434 349.8125 598.78125 C 354.74122 598.02816 359.62267 597.17915 364.46875 596.1875 C 369.31483 595.19585 374.1178 594.06772 378.875 592.84375 C 383.6322 591.61978 388.33792 590.29381 393 588.84375 C 397.66208 587.39369 402.28302 585.82616 406.84375 584.15625 C 411.40448 582.48634 415.89061 580.69602 420.34375 578.8125 C 424.79689 576.92898 429.22319 574.96589 433.5625 572.875 C 437.90181 570.78411 442.15575 568.57328 446.375 566.28125 C 450.59425 563.98922 454.7508 561.61193 458.84375 559.125 C 462.9367 556.63807 466.97709 554.0506 470.9375 551.375 C 474.89791 548.6994 478.80336 545.92053 482.625 543.0625 C 486.44664 540.20447 490.19837 537.25297 493.875 534.21875 C 497.55163 531.18453 501.13087 528.07918 504.65625 524.875 C 508.18163 521.67082 511.6321 518.3679 515 515 C 518.3679 511.6321 521.67082 508.18163 524.875 504.65625 C 528.07918 501.13087 531.18453 497.55163 534.21875 493.875 C 537.25297 490.19837 540.20447 486.44664 543.0625 482.625 C 545.92053 478.80336 548.6994 474.89791 551.375 470.9375 C 554.0506 466.97709 556.63807 462.9367 559.125 458.84375 C 561.61193 454.7508 563.98922 450.59425 566.28125 446.375 C 568.57328 442.15575 570.78411 437.90181 572.875 433.5625 C 574.96589 429.22319 576.92898 424.79689 578.8125 420.34375 C 580.69602 415.89061 582.48634 411.40448 584.15625 406.84375 C 585.82616 402.28302 587.39369 397.66208 588.84375 393 C 590.29381 388.33792 591.61978 383.6322 592.84375 378.875 C 594.06772 374.1178 595.19585 369.31483 596.1875 364.46875 C 597.17915 359.62267 598.02816 354.74122 598.78125 349.8125 C 599.53434 344.88378 600.1792 339.91138 600.6875 334.90625 C 601.1958 329.90112 601.58648 324.85655 601.84375 319.78125 C 602.10102 314.70595 602.21875 309.57674 602.21875 304.4375 C 602.21875 299.29826 602.10102 294.2003 601.84375 289.125 C 601.58648 284.0497 601.1958 279.00513 600.6875 274 C 600.1792 268.99487 599.53434 264.02247 598.78125 259.09375 C 598.02816 254.16503 597.17915 249.28358 596.1875 244.4375 C 595.19585 239.59142 594.06772 234.78845 592.84375 230.03125 C 591.61978 225.27405 590.29381 220.56833 588.84375 215.90625 C 587.39369 211.24417 585.82616 206.62323 584.15625 202.0625 C 582.48634 197.50177 580.69602 192.98439 578.8125 188.53125 C 576.92898 184.07811 574.96589 179.68306 572.875 175.34375 C 570.78411 171.00444 568.57328 166.71925 566.28125 162.5 C 563.98922 158.28075 561.61193 154.1242 559.125 150.03125 C 556.63807 145.9383 554.0506 141.92916 551.375 137.96875 C 548.6994 134.00834 545.92053 130.10289 543.0625 126.28125 C 540.20447 122.45961 537.25297 118.70788 534.21875 115.03125 C 531.18453 111.35462 528.07918 107.77538 524.875 104.25 C 521.67082 100.72462 518.3679 97.274147 515 93.90625 C 511.6321 90.538353 508.18163 87.235428 504.65625 84.03125 C 501.13087 80.827072 497.55163 77.721722 493.875 74.6875 C 490.19837 71.653278 486.44664 68.701779 482.625 65.84375 C 478.80336 62.985721 474.89791 60.20685 470.9375 57.53125 C 466.97709 54.85565 462.9367 52.268185 458.84375 49.78125 C 454.7508 47.294315 450.59425 44.917032 446.375 42.625 C 442.15575 40.332968 437.90181 38.122144 433.5625 36.03125 C 429.22319 33.940356 424.79689 31.977268 420.34375 30.09375 C 415.89061 28.210232 411.40448 26.419906 406.84375 24.75 C 402.28302 23.080094 397.66208 21.512558 393 20.0625 C 388.33792 18.612442 383.6322 17.286473 378.875 16.0625 C 374.1178 14.838527 369.31483 13.710402 364.46875 12.71875 C 359.62267 11.727098 354.74122 10.878093 349.8125 10.125 C 344.88378 9.3719065 339.91138 8.7270489 334.90625 8.21875 C 329.90112 7.7104511 324.85655 7.3197677 319.78125 7.0625 C 314.70595 6.8052323 309.57674 6.6875 304.4375 6.6875 z "
       id="path3078"
       transform="translate(48.791714,289.4697)"
       inkscape:export-filename="/home/gumm/Workspace/explore/app/assets/favsource.png"
       inkscape:export-xdpi="8.6099997"
       inkscape:export-ydpi="8.6099997" />
    <path
       style="fill:#333333;fill-opacity:1;stroke:none"
       d="M 304.4375 6.6875 C 309.57674 6.6875 314.70595 6.8052323 319.78125 7.0625 C 324.85655 7.3197677 329.90112 7.7104511 334.90625 8.21875 C 339.91138 8.7270489 344.88378 9.3719065 349.8125 10.125 C 354.74122 10.878093 359.62267 11.727098 364.46875 12.71875 C 369.31483 13.710402 374.1178 14.838527 378.875 16.0625 C 383.6322 17.286473 388.33792 18.612442 393 20.0625 C 397.66208 21.512558 402.28302 23.080094 406.84375 24.75 C 411.40448 26.419906 415.89061 28.210232 420.34375 30.09375 C 424.79689 31.977268 429.22319 33.940356 433.5625 36.03125 C 437.90181 38.122144 442.15575 40.332968 446.375 42.625 C 450.59425 44.917032 454.7508 47.294315 458.84375 49.78125 C 462.9367 52.268185 466.97709 54.85565 470.9375 57.53125 C 474.89791 60.20685 478.80336 62.985721 482.625 65.84375 C 486.44664 68.701779 490.19837 71.653278 493.875 74.6875 C 497.55163 77.721722 501.13087 80.827072 504.65625 84.03125 C 508.18163 87.235428 511.6321 90.538353 515 93.90625 C 518.3679 97.274147 521.67082 100.72462 524.875 104.25 C 528.07918 107.77538 531.18453 111.35462 534.21875 115.03125 C 537.25297 118.70788 540.20447 122.45961 543.0625 126.28125 C 545.92053 130.10289 548.6994 134.00834 551.375 137.96875 C 554.0506 141.92916 556.63807 145.9383 559.125 150.03125 C 561.61193 154.1242 563.98922 158.28075 566.28125 162.5 C 568.57328 166.71925 570.78411 171.00444 572.875 175.34375 C 574.96589 179.68306 576.92898 184.07811 578.8125 188.53125 C 580.69602 192.98439 582.48634 197.50177 584.15625 202.0625 C 585.82616 206.62323 587.39369 211.24417 588.84375 215.90625 C 590.29381 220.56833 591.61978 225.27405 592.84375 230.03125 C 594.06772 234.78845 595.19585 239.59142 596.1875 244.4375 C 597.17915 249.28358 598.02816 254.16503 598.78125 259.09375 C 599.53434 264.02247 600.1792 268.99487 600.6875 274 C 601.1958 279.00513 601.58648 284.0497 601.84375 289.125 C 602.10102 294.2003 602.21875 299.29826 602.21875 304.4375 C 602.21875 309.57674 602.10102 314.70595 601.84375 319.78125 C 601.58648 324.85655 601.1958 329.90112 600.6875 334.90625 C 600.1792 339.91138 599.53434 344.88378 598.78125 349.8125 C 598.02816 354.74122 597.17915 359.62267 596.1875 364.46875 C 595.19585 369.31483 594.06772 374.1178 592.84375 378.875 C 591.61978 383.6322 590.29381 388.33792 588.84375 393 C 587.39369 397.66208 585.82616 402.28302 584.15625 406.84375 C 582.48634 411.40448 580.69602 415.89061 578.8125 420.34375 C 576.92898 424.79689 574.96589 429.22319 572.875 433.5625 C 570.78411 437.90181 568.57328 442.15575 566.28125 446.375 C 563.98922 450.59425 561.61193 454.7508 559.125 458.84375 C 556.63807 462.9367 554.0506 466.97709 551.375 470.9375 C 548.6994 474.89791 545.92053 478.80336 543.0625 482.625 C 540.20447 486.44664 537.25297 490.19837 534.21875 493.875 C 531.18453 497.55163 528.07918 501.13087 524.875 504.65625 C 521.67082 508.18163 518.3679 511.6321 515 515 C 511.6321 518.3679 508.18163 521.67082 504.65625 524.875 C 501.13087 528.07918 497.55163 531.18453 493.875 534.21875 C 490.19837 537.25297 486.44664 540.20447 482.625 543.0625 C 478.80336 545.92053 474.89791 548.6994 470.9375 551.375 C 466.97709 554.0506 462.9367 556.63807 458.84375 559.125 C 454.7508 561.61193 450.59425 563.98922 446.375 566.28125 C 442.15575 568.57328 437.90181 570.78411 433.5625 572.875 C 429.22319 574.96589 424.79689 576.92898 420.34375 578.8125 C 415.89061 580.69602 411.40448 582.48634 406.84375 584.15625 C 402.28302 585.82616 397.66208 587.39369 393 588.84375 C 388.33792 590.29381 383.6322 591.61978 378.875 592.84375 C 374.1178 594.06772 369.31483 595.19585 364.46875 596.1875 C 359.62267 597.17915 354.74122 598.02816 349.8125 598.78125 C 344.88378 599.53434 339.91138 600.1792 334.90625 600.6875 C 329.90112 601.1958 324.85655 601.58648 319.78125 601.84375 C 314.70595 602.10102 309.57674 602.21875 304.4375 602.21875 C 299.29826 602.21875 294.2003 602.10102 289.125 601.84375 C 284.0497 601.58648 279.00513 601.1958 274 600.6875 C 268.99487 600.1792 264.02247 599.53434 259.09375 598.78125 C 254.16503 598.02816 249.28358 597.17915 244.4375 596.1875 C 239.59142 595.19585 234.78845 594.06772 230.03125 592.84375 C 225.27405 591.61978 220.56833 590.29381 215.90625 588.84375 C 211.24417 587.39369 206.62323 585.82616 202.0625 584.15625 C 197.50177 582.48634 192.98439 580.69602 188.53125 578.8125 C 184.07811 576.92898 179.68306 574.96589 175.34375 572.875 C 171.00444 570.78411 166.71925 568.57328 162.5 566.28125 C 158.28075 563.98922 154.1242 561.61193 150.03125 559.125 C 145.9383 556.63807 141.92916 554.0506 137.96875 551.375 C 134.00834 548.6994 130.10289 545.92053 126.28125 543.0625 C 122.45961 540.20447 118.70788 537.25297 115.03125 534.21875 C 111.35462 531.18453 107.77538 528.07918 104.25 524.875 C 100.72462 521.67082 97.274147 518.3679 93.90625 515 C 90.538353 511.6321 87.235428 508.18163 84.03125 504.65625 C 80.827072 501.13087 77.721722 497.55163 74.6875 493.875 C 71.653278 490.19837 68.701779 486.44664 65.84375 482.625 C 62.985721 478.80336 60.20685 474.89791 57.53125 470.9375 C 54.85565 466.97709 52.268185 462.9367 49.78125 458.84375 C 47.294315 454.7508 44.917032 450.59425 42.625 446.375 C 40.332968 442.15575 38.122144 437.90181 36.03125 433.5625 C 33.940356 429.22319 31.977268 424.79689 30.09375 420.34375 C 28.210232 415.89061 26.419906 411.40448 24.75 406.84375 C 23.080094 402.28302 21.512558 397.66208 20.0625 393 C 18.612442 388.33792 17.286473 383.6322 16.0625 378.875 C 14.838527 374.1178 13.710402 369.31483 12.71875 364.46875 C 11.727098 359.62267 10.878093 354.74122 10.125 349.8125 C 9.3719065 344.88378 8.7270489 339.91138 8.21875 334.90625 C 7.7104511 329.90112 7.3197677 324.85655 7.0625 319.78125 C 6.8052323 314.70595 6.6875 309.57674 6.6875 304.4375 C 6.6875 299.29826 6.8052323 294.2003 7.0625 289.125 C 7.3197677 284.0497 7.7104511 279.00513 8.21875 274 C 8.7270489 268.99487 9.3719065 264.02247 10.125 259.09375 C 10.878093 254.16503 11.727098 249.28358 12.71875 244.4375 C 13.710402 239.59142 14.838527 234.78845 16.0625 230.03125 C 17.286473 225.27405 18.612442 220.56833 20.0625 215.90625 C 21.512558 211.24417 23.080094 206.62323 24.75 202.0625 C 26.419906 197.50177 28.210232 192.98439 30.09375 188.53125 C 31.977268 184.07811 33.940356 179.68306 36.03125 175.34375 C 38.122144 171.00444 40.332968 166.71925 42.625 162.5 C 44.917032 158.28075 47.294315 154.1242 49.78125 150.03125 C 52.268185 145.9383 54.85565 141.92916 57.53125 137.96875 C 60.20685 134.00834 62.985721 130.10289 65.84375 126.28125 C 68.701779 122.45961 71.653278 118.70788 74.6875 115.03125 C 77.721722 111.35462 80.827072 107.77538 84.03125 104.25 C 87.235428 100.72462 90.538353 97.274147 93.90625 93.90625 C 97.274147 90.538353 100.72462 87.235428 104.25 84.03125 C 107.77538 80.827072 111.35462 77.721722 115.03125 74.6875 C 118.70788 71.653278 122.45961 68.701779 126.28125 65.84375 C 130.10289 62.985721 134.00834 60.20685 137.96875 57.53125 C 141.92916 54.85565 145.9383 52.268185 150.03125 49.78125 C 154.1242 47.294315 158.28075 44.917032 162.5 42.625 C 166.71925 40.332968 171.00444 38.122144 175.34375 36.03125 C 179.68306 33.940356 184.07811 31.977268 188.53125 30.09375 C 192.98439 28.210232 197.50177 26.419906 202.0625 24.75 C 206.62323 23.080094 211.24417 21.512558 215.90625 20.0625 C 220.56833 18.612442 225.27405 17.286473 230.03125 16.0625 C 234.78845 14.838527 239.59142 13.710402 244.4375 12.71875 C 249.28358 11.727098 254.16503 10.878093 259.09375 10.125 C 264.02247 9.3719065 268.99487 8.7270489 274 8.21875 C 279.00513 7.7104511 284.0497 7.3197677 289.125 7.0625 C 294.2003 6.8052323 299.29826 6.6875 304.4375 6.6875 z "
       id="path3076"
       transform="translate(48.791714,289.4697)"
       inkscape:export-filename="/home/gumm/Workspace/explore/app/assets/favsource.png"
       inkscape:export-xdpi="8.6099997"
       inkscape:export-ydpi="8.6099997" />
    <path
       style="fill:#333333;fill-opacity:1;stroke:none"
       d="m 48.791714,1289.4697 0,608.9063 608.906246,0 0,-608.9063 -608.906246,0 z"
       id="rect3838"
       inkscape:connector-curvature="0" />
    <path
       sodipodi:type="arc"
       style="fill:#e84c3d;fill-opacity:1;stroke:none"
       id="path3840"
       sodipodi:cx="390.38562"
       sodipodi:cy="166.01497"
       sodipodi:rx="67.928734"
       sodipodi:ry="67.928734"
       d="m 458.31435,166.01497 c 0,37.516 -30.41273,67.92873 -67.92873,67.92873 -37.516,0 -67.92873,-30.41273 -67.92873,-67.92873 0,-37.516 30.41273,-67.928735 67.92873,-67.928735 37.516,0 67.92873,30.412735 67.92873,67.928735 z"
       transform="matrix(3.703632,0,0,3.703632,-1092.6042,-20.936704)"
       inkscape:export-filename="/home/gumm/Workspace/explore/app/assets/favsource.png"
       inkscape:export-xdpi="8.6099997"
       inkscape:export-ydpi="8.6099997" />
    <path
       style="fill:#c1392b;fill-opacity:1;stroke:none"
       d="m 107,230.1875 0.008,154.36798 138.89808,164.63202 c 18.78343,4.47614 38.37738,6.84375 58.53125,6.84375 137.76597,0 249.6413,-110.74557 251.53125,-248.0625 -15.06596,-17.88059 -30.66662,-36.40356 -50.1875,-59.6875 L 391.5625,230.1875 406.34375,269.5625 373.375,230.1875 320.15625,284.53125 274.625,230.1875 325.4375,354.125 221.75,230.53125 z"
       id="path3873"
       transform="translate(48.791714,289.4697)"
       inkscape:connector-curvature="0"
       sodipodi:nodetypes="cccscccccccccc"
       inkscape:export-filename="/home/gumm/Workspace/explore/app/assets/favsource.png"
       inkscape:export-xdpi="8.6099997"
       inkscape:export-ydpi="8.6099997" />
    <g
       style="font-size:78.04393005px;font-style:normal;font-weight:normal;line-height:125%;letter-spacing:0px;word-spacing:0px;fill:#ffffff;fill-opacity:1;stroke:none;font-family:Sans"
       id="text3842"
       transform="matrix(2.7693825,0,0,2.7693825,-784.76176,146.3173)"
       inkscape:export-filename="/home/gumm/Workspace/explore/app/assets/favsource.png"
       inkscape:export-xdpi="8.6099997"
       inkscape:export-ydpi="8.6099997">
      <path
         d="m 339.62865,134.82737 0,55.72337 42.29981,0 0,-10.3018 -30.04691,0 0,-13.65769 27.0032,0 0,-9.52136 -27.0032,0 0,-11.94072 29.42256,0 0,-10.3018 -41.67546,0"
         style="font-variant:normal;font-weight:bold;font-stretch:normal;fill:#ffffff;font-family:Helvetica Neue;-inkscape-font-specification:Helvetica Neue Bold"
         id="path3859"
         inkscape:connector-curvature="0" />
      <path
         d="m 403.89295,161.36231 -19.43294,29.18843 13.73573,0 12.40899,-19.27686 12.17485,19.27686 14.59422,0 -19.43294,-29.11039 17.87206,-26.61298 -13.42356,0 -11.31637,17.79402 -10.92615,-17.79402 -14.20399,0 17.9501,26.53494"
         style="font-variant:normal;font-weight:bold;font-stretch:normal;fill:#ffffff;font-family:Helvetica Neue;-inkscape-font-specification:Helvetica Neue Bold"
         id="path3861"
         inkscape:connector-curvature="0" />
      <path
         d="m 454.61907,161.05013 0,-16.7014 9.52136,0 c 1.40476,5e-5 2.75752,0.1041 4.05828,0.31217 1.3007,0.20817 2.44534,0.6244 3.43394,1.24871 0.98852,0.57236 1.76895,1.40483 2.34131,2.4974 0.62432,1.09266 0.93649,2.52346 0.93653,4.29242 -4e-5,1.76903 -0.31221,3.19984 -0.93653,4.29242 -0.57236,1.09264 -1.35279,1.95113 -2.34131,2.57545 -0.9886,0.57235 -2.13324,0.96257 -3.43394,1.17065 -1.30076,0.20815 -2.65352,0.31221 -4.05828,0.31218 l -9.52136,0 m -12.2529,-26.22276 0,55.72337 12.2529,0 0,-19.97925 12.87725,0 c 3.48592,2e-5 6.45159,-0.49426 8.897,-1.48284 2.44534,-1.04056 4.42245,-2.39332 5.93134,-4.05828 1.56084,-1.66491 2.67946,-3.56398 3.35589,-5.69721 0.72836,-2.18519 1.09257,-4.39644 1.09262,-6.63373 -5e-5,-2.28925 -0.36426,-4.50049 -1.09262,-6.63373 -0.67643,-2.13316 -1.79505,-4.03223 -3.35589,-5.69721 -1.50889,-1.66489 -3.486,-2.99163 -5.93134,-3.98024 -2.44541,-1.04053 -5.41108,-1.56082 -8.897,-1.56088 l -25.13015,0"
         style="font-variant:normal;font-weight:bold;font-stretch:normal;fill:#ffffff;font-family:Helvetica Neue;-inkscape-font-specification:Helvetica Neue Bold"
         id="path3863"
         inkscape:connector-curvature="0" />
    </g>
  </g>
</svg>
